HIERARCHY
ROOT Hips
{
	OFFSET 0.00000 0.00000 0.00000
	CHANNELS 6 Xposition Yposition Zposition Zrotation Yrotation Xrotation 
	JOINT LHipJoint
	{
		OFFSET 0 0 0
		CHANNELS 3 Zrotation Yrotation Xrotation
		JOINT LeftHip
		{
			OFFSET 1.43652 -1.81092 0.91346
			CHANNELS 3 Zrotation Yrotation Xrotation
			JOINT LeftKnee
			{
				OFFSET 2.45984 -6.75837 0.00000
				CHANNELS 3 Zrotation Yrotation Xrotation
				JOINT LeftAnkle
				{
					OFFSET 2.63718 -7.24559 0.00000
					CHANNELS 3 Zrotation Yrotation Xrotation
					JOINT LeftToe
					{
						OFFSET 0.19690 -0.54098 2.12239
						CHANNELS 3 Zrotation Yrotation Xrotation
						End Site
						{
							OFFSET 0.00000 -0.00000 1.10116
						}
					}
				}
			}
		}
	}
	JOINT RHipJoint
	{
		OFFSET 0 0 0
		CHANNELS 3 Zrotation Yrotation Xrotation
		JOINT RightHip
		{
			OFFSET -1.35116 -1.81092 0.91345
			CHANNELS 3 Zrotation Yrotation Xrotation
			JOINT RightKnee
			{
				OFFSET -2.55576 -7.02189 0.00000
				CHANNELS 3 Zrotation Yrotation Xrotation
				JOINT RightAnkle
				{
					OFFSET -2.61938 -7.19669 0.00000
					CHANNELS 3 Zrotation Yrotation Xrotation
					JOINT RightToe
					{
						OFFSET -0.32509 -0.89318 2.23646
						CHANNELS 3 Zrotation Yrotation Xrotation
						End Site
						{
							OFFSET -0.00000 -0.00000 1.19625
						}
					}
				}
			}
		}
	}
	JOINT lowerback
	{
		OFFSET 0 0 0
		CHANNELS 3 Zrotation Yrotation Xrotation
		JOINT Chest
		{
			OFFSET 0.05193 2.08077 -0.11958
			CHANNELS 3 Zrotation Yrotation Xrotation
			JOINT Chest2
			{
				OFFSET 0.04960 2.08447 0.01967
				CHANNELS 3 Zrotation Yrotation Xrotation
				JOINT lowerneck
				{
					OFFSET 0 0 0
					CHANNELS 3 Zrotation Yrotation Xrotation
					JOINT Neck
					{
						OFFSET -0.10699 1.82066 0.27584
						CHANNELS 3 Zrotation Yrotation Xrotation
						JOINT Head
						{
							OFFSET 0.14949 1.84747 -0.32279
							CHANNELS 3 Zrotation Yrotation Xrotation
							End Site
							{
								OFFSET 0.04969 1.88916 -0.14562
							}
						}
					}
				}
				JOINT LeftCollar
				{
					OFFSET 0 0 0
					CHANNELS 3 Zrotation Yrotation Xrotation
					JOINT LeftShoulder
					{
						OFFSET 3.73629 1.27211 -0.12847
CHANNELS 3 Zrotation Xrotation Yrotation
						JOINT LeftElbow
						{
OFFSET 0 -5.109950 0.000000
CHANNELS 3 Zrotation Xrotation Yrotation
							JOINT LeftWrist
							{
OFFSET 0 -3.212070 0.000000
CHANNELS 3 Zrotation Xrotation Yrotation
								JOINT lhand
								{
									OFFSET 0 0 0
CHANNELS 3 Zrotation Xrotation Yrotation
									JOINT LFingers
									{
OFFSET 0 -0.633490 0.000000
CHANNELS 3 Zrotation Xrotation Yrotation
										End Site
										{
OFFSET 0 -0.510740 0.000000
										}
									}
								}
								JOINT LThumb
								{
OFFSET 0 0.000000 0.000000
CHANNELS 3 Zrotation Xrotation Yrotation
									End Site
									{
OFFSET 0 -0.518530 0.518530
									}
								}
							}
						}
					}
				}
				JOINT RightCollar
				{
					OFFSET 0 0 0
					CHANNELS 3 Zrotation Yrotation Xrotation
					JOINT RightShoulder
					{
						OFFSET -3.70251 1.29541 -0.35354
CHANNELS 3 Zrotation Xrotation Yrotation
						JOINT RightElbow
						{
OFFSET 0 -5.251090 0.000000
CHANNELS 3 Zrotation Xrotation Yrotation
							JOINT RightWrist
							{
OFFSET 0 -3.283640 0.000000
CHANNELS 3 Zrotation Xrotation Yrotation
								JOINT rhand
								{
									OFFSET 0 0 0
CHANNELS 3 Zrotation Xrotation Yrotation
									JOINT RFingers
									{
OFFSET 0 -0.599740 0.000000
CHANNELS 3 Zrotation Xrotation Yrotation
										End Site
										{
OFFSET 0 -0.483530 0.000000
										}
									}
								}
								JOINT RThumb
								{
OFFSET 0 0.000000 0.000000
CHANNELS 3 Zrotation Xrotation Yrotation
									End Site
									{
OFFSET 0 -0.490910 0.490910
									}
								}
							}
						}
					}
				}
			}
		}
	}
}
MOTION
Frames: 11
Frame Time: 0.008333333333333333
5.027984 17.030832 -22.709517 0.688820 10.223049 19.433906 0.000000 0.000000 0.000000 -9.545015 -11.115479 -47.635651 4.135260 12.338206 36.939148 -0.295606 -12.304571 -3.735795 0.057310 -1.544413 -4.248235 0.000000 0.000000 0.000000 12.594347 8.791832 -49.549646 -7.129894 -15.440362 49.364038 -0.502915 -10.730716 -21.275943 -0.000689 -0.173285 0.476182 5.848073 -1.412265 42.157710 4.505841 1.401760 9.927918 1.234842 0.570737 -8.896499 -14.149390 -10.588631 -14.851569 17.459140 -13.147143 3.225662 6.439027 -5.818966 5.571713 0.000000 0.000000 0.000000 -20.133707 -43.388718 -72.521471 49.232469 -52.681221 25.562453 33.923218 0.824040 -23.839816 0.000000 0.000000 0.000000 -7.125000 0.000000 0.000000 5.314358 57.936823 -1.684153 0.000000 0.000000 0.000000 -12.891850 -36.371641 35.726653 -73.098044 -58.888344 -45.417426 -38.356652 -0.704992 -20.168708 0.000000 0.000000 0.000000 7.125000 0.000000 0.000000 -6.197600 5.004783 -5.668100
5.029110 17.026501 -22.692104 0.557099 10.271786 19.142567 0.000000 0.000000 0.000000 -9.409559 -11.119777 -47.370262 4.179964 12.396071 37.147980 -0.282545 -12.262400 -3.954991 0.059952 -1.580275 -4.347143 0.000000 0.000000 0.000000 12.817549 8.712635 -49.204784 -7.144434 -15.452303 49.418452 -0.516155 -10.729140 -21.403878 -0.000568 -0.156705 0.430539 5.851430 -1.522160 41.797781 4.390450 1.232064 9.821781 1.176579 0.496288 -8.905382 -14.212641 -10.519394 -14.403757 17.914080 -12.978582 1.838348 6.646039 -5.775242 5.094289 0.000000 0.000000 0.000000 -19.488859 -42.832566 -72.215903 49.249656 -52.688345 25.576128 33.001431 -0.915492 -24.750450 0.000000 0.000000 0.000000 -7.125000 0.000000 0.000000 4.051052 58.731067 -1.358239 0.000000 0.000000 0.000000 -12.808896 -34.798831 36.050960 -76.953808 -59.338473 -48.727374 -39.792574 -1.431007 -21.484435 0.000000 0.000000 0.000000 7.125000 0.000000 0.000000 -6.807555 3.014812 -6.492502
5.030841 17.022165 -22.673128 0.412334 10.304813 18.852576 0.000000 0.000000 0.000000 -9.254058 -11.125800 -47.099271 4.225473 12.454495 37.359403 -0.267616 -12.210798 -4.195683 0.063693 -1.628070 -4.478924 0.000000 0.000000 0.000000 13.058741 8.624039 -48.858645 -7.156885 -15.462597 49.465238 -0.531557 -10.701968 -21.525909 -0.000447 -0.136165 0.374110 5.823300 -1.595553 41.426392 4.319051 1.097259 9.716879 1.166523 0.436619 -8.911267 -14.291870 -10.450752 -13.941207 18.332944 -12.783171 0.311699 6.851063 -5.726950 4.570425 0.000000 0.000000 0.000000 -18.968622 -42.221025 -72.022153 49.371310 -52.738705 25.672991 31.976605 -3.088185 -25.473121 0.000000 0.000000 0.000000 -7.125000 0.000000 0.000000 2.666414 59.278611 -0.928182 0.000000 0.000000 0.000000 -12.839645 -33.239140 36.248356 -80.720676 -59.662507 -51.973464 -42.174411 -0.905710 -22.126980 0.000000 0.000000 0.000000 7.125000 0.000000 0.000000 -8.091636 1.470275 -7.967911
5.032925 17.018539 -22.652663 0.259752 10.311312 18.546606 0.000000 0.000000 0.000000 -9.095806 -11.113579 -46.799590 4.270320 12.511608 37.566764 -0.251340 -12.155024 -4.453382 0.068566 -1.688741 -4.646299 0.000000 0.000000 0.000000 13.313195 8.529570 -48.487020 -7.165985 -15.470102 49.499390 -0.548849 -10.648915 -21.639870 -0.000326 -0.113475 0.311660 5.761800 -1.636595 41.063356 4.278490 0.991802 9.618423 1.194159 0.389617 -8.913457 -14.378781 -10.377212 -13.454243 18.724152 -12.559082 -1.344979 7.057263 -5.672124 4.001859 0.000000 0.000000 0.000000 -18.549913 -41.559718 -71.917987 49.608060 -52.836111 25.861499 30.844121 -5.639357 -25.989331 0.000000 0.000000 0.000000 -7.125000 0.000000 0.000000 1.182182 59.564005 -0.419449 0.000000 0.000000 0.000000 -12.953673 -31.712822 36.381238 -84.589830 -59.881248 -55.316800 -44.593511 1.073944 -21.581709 0.000000 0.000000 0.000000 7.125000 0.000000 0.000000 -9.641672 1.284828 -9.560393
5.035482 17.015623 -22.631156 0.105511 10.290627 18.223492 0.000000 0.000000 0.000000 -8.946975 -11.078815 -46.470545 4.314077 12.567064 37.768727 -0.234069 -12.093946 -4.720935 0.073865 -1.753631 -4.825383 0.000000 0.000000 0.000000 13.572152 8.428046 -48.089252 -7.171581 -15.474718 49.520377 -0.567751 -10.571049 -21.743602 -0.000205 -0.088133 0.242009 5.679740 -1.659208 40.722903 4.252190 0.904345 9.516278 1.240463 0.350004 -8.926484 -14.467779 -10.290937 -12.929868 19.091495 -12.302509 -3.107889 7.266826 -5.607828 3.393560 0.000000 0.000000 0.000000 -18.201873 -40.840640 -71.875158 49.965425 -52.981489 26.146518 29.592159 -8.486675 -26.345512 0.000000 0.000000 0.000000 -7.125000 0.000000 0.000000 -0.404719 59.640921 0.144699 0.000000 0.000000 0.000000 -13.097841 -30.228838 36.555561 -88.654982 -59.990979 -58.835300 -46.145646 4.082666 -19.993508 0.000000 0.000000 0.000000 7.125000 0.000000 0.000000 -10.926175 2.706399 -10.593869
5.038702 17.013255 -22.608897 -0.047381 10.238047 17.885860 0.000000 0.000000 0.000000 -8.815086 -11.013707 -46.118481 4.357922 12.621981 37.969546 -0.215868 -12.029581 -4.993911 0.078912 -1.811546 -4.985059 0.000000 0.000000 0.000000 13.830106 8.323714 -47.669850 -7.174267 -15.476920 49.530489 -0.587211 -10.474833 -21.833632 -0.000084 -0.054321 0.149335 5.587203 -1.670467 40.417466 4.226702 0.830530 9.397436 1.287734 0.315816 -8.967996 -14.551118 -10.186195 -12.356577 19.431794 -12.011656 -4.949734 7.479272 -5.532309 2.751110 0.000000 0.000000 0.000000 -17.892807 -40.048660 -71.881980 50.466139 -53.181505 26.546956 28.224452 -11.550322 -26.612142 0.000000 0.000000 0.000000 -7.125000 0.000000 0.000000 -2.093960 59.591768 0.746066 0.000000 0.000000 0.000000 -13.206252 -28.817319 36.923378 -92.818690 -59.964162 -62.440594 -46.339962 6.704040 -18.085271 0.000000 0.000000 0.000000 7.125000 0.000000 0.000000 -11.485776 5.090549 -10.641323
5.042759 17.010482 -22.586505 -0.195720 10.160144 17.555816 0.000000 0.000000 0.000000 -8.698329 -10.926830 -45.776955 4.403377 12.678656 38.177231 -0.196960 -11.961008 -5.270627 0.083449 -1.863320 -5.128017 0.000000 0.000000 0.000000 14.076995 8.221573 -47.261094 -7.176251 -15.478541 49.537893 -0.606760 -10.363292 -21.910490 0.000000 -0.014159 0.038800 5.491585 -1.679799 40.126253 4.195098 0.759690 9.253776 1.329165 0.282186 -9.040756 -14.624123 -10.061214 -11.746762 19.739925 -11.691160 -6.816085 7.690756 -5.445116 2.091558 0.000000 0.000000 0.000000 -17.592544 -39.185183 -71.917159 51.107147 -53.431731 27.060981 26.840999 -14.671189 -26.904524 0.000000 0.000000 0.000000 -7.125000 0.000000 0.000000 -3.805221 59.566214 1.354931 0.000000 0.000000 0.000000 -13.246394 -27.494104 37.584528 -96.868258 -59.811449 -65.943868 -45.782881 6.989423 -16.978414 0.000000 0.000000 0.000000 7.125000 0.000000 0.000000 -11.401229 6.718468 -10.199451
5.047468 17.007225 -22.564172 -0.341966 10.056932 17.238223 0.000000 0.000000 0.000000 -8.592717 -10.816109 -45.455238 4.451194 12.737724 38.394453 -0.177485 -11.891633 -5.551239 0.087506 -1.907979 -5.251443 0.000000 0.000000 0.000000 14.313247 8.130914 -46.867683 -7.178240 -15.480166 49.545428 -0.626558 -10.241251 -21.979565 0.000000 0.027433 -0.075341 5.392039 -1.691025 39.840775 4.155352 0.685845 9.087868 1.365440 0.246629 -9.139116 -14.681783 -9.917485 -11.132574 20.009762 -11.347225 -8.655440 7.895440 -5.345851 1.433820 0.000000 0.000000 0.000000 -17.286600 -38.265348 -71.966918 51.884618 -53.727017 27.686689 25.663225 -17.660426 -27.323327 0.000000 0.000000 0.000000 -7.125000 0.000000 0.000000 -5.336408 59.721456 1.922767 0.000000 0.000000 0.000000 -13.214456 -26.279096 38.539504 -100.653208 -59.558053 -69.211713 -44.744448 4.890702 -16.804534 0.000000 0.000000 0.000000 7.125000 0.000000 0.000000 -10.806283 7.278016 -9.526483
5.052588 17.003400 -22.541822 -0.490043 9.924264 16.937454 0.000000 0.000000 0.000000 -8.491340 -10.677397 -45.158967 4.501316 12.799145 38.621086 -0.157441 -11.823788 -5.838921 0.091185 -1.947527 -5.360751 0.000000 0.000000 0.000000 14.541258 8.064010 -46.492236 -7.180497 -15.482061 49.553737 -0.646008 -10.116050 -22.042845 -0.000079 0.069879 -0.191904 5.274008 -1.707150 39.544357 4.113924 0.598868 8.900278 1.414856 0.204766 -9.257756 -14.748112 -9.747806 -10.491284 20.253799 -10.974138 -10.443957 8.102015 -5.230838 0.781542 0.000000 0.000000 0.000000 -16.960487 -37.288583 -71.975411 52.803978 -54.064872 28.429489 25.109582 -20.280766 -27.859058 0.000000 0.000000 0.000000 -7.125000 0.000000 0.000000 -6.222062 60.145302 2.305153 0.000000 0.000000 0.000000 -13.133114 -25.176717 39.733348 -103.984169 -59.243215 -72.079522 -43.455745 1.321343 -17.235999 0.000000 0.000000 0.000000 7.125000 0.000000 0.000000 -9.922772 7.123825 -8.750964
5.057992 16.999106 -22.519331 -0.643088 9.763527 16.654187 0.000000 0.000000 0.000000 -8.389042 -10.510536 -44.888967 4.553128 12.862113 38.854477 -0.136928 -11.760286 -6.131895 0.094895 -1.986346 -5.467951 0.000000 0.000000 0.000000 14.765990 8.022452 -46.133691 -7.182697 -15.483897 49.562088 -0.665473 -9.987478 -22.103517 -0.000300 0.107749 -0.296060 5.147375 -1.721282 39.211967 4.065769 0.507126 8.716251 1.463136 0.161359 -9.359467 -14.785859 -9.570144 -9.889513 20.463120 -10.597118 -12.145774 8.294540 -5.109468 0.155356 0.000000 0.000000 0.000000 -16.633449 -36.264421 -71.919888 53.887670 -54.447962 29.308858 25.480585 -22.322714 -28.391771 0.000000 0.000000 0.000000 -7.125000 0.000000 0.000000 -6.060556 60.789668 2.337136 0.000000 0.000000 0.000000 -13.028648 -24.195827 41.022613 -106.714465 -58.917549 -74.422482 -42.105165 -2.358281 -17.742819 0.000000 0.000000 0.000000 7.125000 0.000000 0.000000 -8.985291 6.888002 -7.943616
5.063643 16.994486 -22.496756 -0.799382 9.576681 16.386133 0.000000 0.000000 0.000000 -8.284908 -10.320276 -44.637433 4.606207 12.926144 39.092569 -0.115823 -11.700757 -6.431742 0.097801 -2.016438 -5.551103 0.000000 0.000000 0.000000 14.988605 7.998723 -45.789728 -7.184859 -15.485655 49.570149 -0.685048 -9.854589 -22.161713 -0.000442 0.142351 -0.391075 5.019787 -1.730135 38.835380 4.005925 0.415925 8.544117 1.498500 0.119139 -9.431118 -14.772909 -9.401548 -9.369920 20.636935 -10.242902 -13.702424 8.462363 -4.992848 -0.419061 0.000000 0.000000 0.000000 -16.373069 -35.230533 -71.722630 55.029623 -54.832082 30.240395 26.916661 -23.503097 -28.808049 0.000000 0.000000 0.000000 -7.125000 0.000000 0.000000 -4.584137 61.587506 1.848777 0.000000 0.000000 0.000000 -12.917666 -23.323626 42.305960 -108.558027 -58.657047 -75.999201 -41.075101 -4.896229 -17.875475 0.000000 0.000000 0.000000 7.125000 0.000000 0.000000 -8.321126 7.018606 -7.321962
